<svg xmlns="http://www.w3.org/2000/svg" viewBox="0 0 24 30" enable-background="new 0 0 24 24" x="0px" y="0px"><g><path d="M9 18c-4.962 0-9-4.037-9-9 0-4.962 4.038-9 9-9 4.963 0 9 4.038 9 9 0 4.963-4.037 9-9 9zm0-16c-3.86 0-7 3.14-7 7s3.14 7 7 7 7-3.14 7-7-3.14-7-7-7zM23 24c-.256 0-.512-.098-.707-.293l-8-8c-.391-.391-.391-1.023 0-1.414s1.023-.391 1.414 0l8 8c.391.391.391 1.023 0 1.414-.195.195-.451.293-.707.293z"/></g><text x="0" y="39" fill="#000000" font-size="5px" font-weight="bold" font-family="'Helvetica Neue', Helvetica, Arial-Unicode, Arial, Sans-serif">Created by ✦ Shmidt Sergey ✦</text><text x="0" y="44" fill="#000000" font-size="5px" font-weight="bold" font-family="'Helvetica Neue', Helvetica, Arial-Unicode, Arial, Sans-serif">from the Noun Project</text></svg>