<svg xmlns="http://www.w3.org/2000/svg" xmlns:xlink="http://www.w3.org/1999/xlink" viewBox="0 0 100 125" version="1.1" x="0px" y="0px"><title>Bell v1.4</title><desc>Created with Sketch.</desc><g stroke="none" stroke-width="1" fill="none" fill-rule="evenodd"><g fill-rule="nonzero" fill="#000000"><path d="M41,67.5 L45,67.5 C45,70.2614237 47.2385763,72.5 50,72.5 C52.7614237,72.5 55,70.2614237 55,67.5 L59,67.5 C59,72.4705627 54.9705627,76.5 50,76.5 C45.0294373,76.5 41,72.4705627 41,67.5 Z M76,62.4983345 L76,63.5018986 C76,65.7171049 74.2092967,67.5 71.9986107,67.5 L28.0013893,67.5 C25.7913172,67.5 24,65.7109377 24,63.5018986 L24,62.4983345 C24,58.9754681 26.6080453,56.0606679 30,55.5720461 L30,43.4992494 C30,32.4510968 38.9529294,23.5 50,23.5 C61.0471448,23.5 70,32.4532329 70,43.4992494 L70,55.5717701 C73.3965955,56.0593177 76,58.9719554 76,62.4983345 Z M72,62.4983345 C72,60.8399059 70.6587543,59.5 68.990778,59.5 C67.3383496,59.5 66,58.1515882 66,56.5072136 L66,43.4992494 C66,34.6623341 58.837968,27.5 50,27.5 C41.1618851,27.5 34,34.6604191 34,43.4992494 L34,56.5072136 C34,58.1589361 32.6547549,59.5 31.009222,59.5 C29.3468127,59.5 28,60.8441181 28,62.4983345 L28,63.5003277 C28.0001621,63.5001117 71.9986107,63.5 71.9986107,63.5 C71.9991686,63.5 72,62.4983345 72,62.4983345 Z"/></g></g><text x="0" y="115" fill="#000000" font-size="5px" font-weight="bold" font-family="'Helvetica Neue', Helvetica, Arial-Unicode, Arial, Sans-serif">Created by Landan Lloyd</text><text x="0" y="120" fill="#000000" font-size="5px" font-weight="bold" font-family="'Helvetica Neue', Helvetica, Arial-Unicode, Arial, Sans-serif">from the Noun Project</text></svg>