<?xml version="1.0" encoding="utf-8"?>
<!-- Generator: Adobe Illustrator 23.1.0, SVG Export Plug-In . SVG Version: 6.00 Build 0)  -->
<svg version="1.1" id="레이어_1" xmlns="http://www.w3.org/2000/svg" xmlns:xlink="http://www.w3.org/1999/xlink" x="0px"
	 y="0px" viewBox="0 0 22.7 22.7" style="enable-background:new 0 0 22.7 22.7;" xml:space="preserve">
<style type="text/css">
	.st0{fill:#999899;}
</style>
<g>
	<path class="st0" d="M20.6,2L20.6,2c0.4,0.4,0.4,1.1,0,1.4l-7.8,7.8l0,0l7.8,7.8c0.4,0.4,0.4,1,0,1.4l0,0c-0.4,0.4-1,0.4-1.4,0
		l-7.8-7.8l0,0l-7.8,7.8c-0.4,0.4-1,0.4-1.4,0l0,0c-0.4-0.4-0.4-1,0-1.4l7.8-7.8l0,0L2.1,3.5c-0.4-0.4-0.4-1,0-1.4l0,0
		c0.4-0.4,1-0.4,1.4,0l7.8,7.8l0,0L19.2,2C19.6,1.6,20.2,1.6,20.6,2z"/>
</g>
</svg>
